# xmcd
#
# Track frame offsets: 
#        150
#        13631
#        29284
#        44727
#        58574
#        73482
#        87269
#        97027
#        112229
#        125506
#        139369
#        154605
#        167378
#        185753
#        201015
#        213934
#        227895
#        241897
#        256620
#        271818
#        288318
#        303960
#        320741
#        335138
#
# Disc length: 4669 seconds
#
# Revision: 0
# Processed by: cddbd v1.5.2PL0 Copyright (c) Steve Scherf et al.
# Submitted via: ExactAudioCopyFreeDBPlugin 1.0
#
DISCID=69123b18
DTITLE=Édith Piaf - Edith PIAF best of [CD4]
DYEAR=2010
DGENRE=Oldies
TTITLE0=C'est à Hambourg
TTITLE1=Mon légionnaire
TTITLE2=A l'enseigne de la fille sans coeur
TTITLE3=Entre saint ouen et clignancourt
TTITLE4=C'est d'la faute à tes yeux
TTITLE5=Notre dame de paris
TTITLE6=C'est l'homme terrible
TTITLE7=L'orgue des amoureux
TTITLE8=Bal dans la rue 
TTITLE9=Le chevalier de paris
TTITLE10=Le ciel est fermé
TTITLE11=Le contrebandier
TTITLE12=Le disque usé
TTITLE13=Le vagabond
TTITLE14=Les deux copains
TTITLE15=Les gars qui marchaient
TTITLE16=Paris méditéranée
TTITLE17=De l'autre côté de la rue
TTITLE18=Chante moi
TTITLE19=Un grand amour qui s'achève
TTITLE20=Légende
TTITLE21=Miséricorde
TTITLE22=Mon amant de la coloniale
TTITLE23=The three bells
EXTD=
EXTT0=
EXTT1=
EXTT2=
EXTT3=
EXTT4=
EXTT5=
EXTT6=
EXTT7=
EXTT8=
EXTT9=
EXTT10=
EXTT11=
EXTT12=
EXTT13=
EXTT14=
EXTT15=
EXTT16=
EXTT17=
EXTT18=
EXTT19=
EXTT20=
EXTT21=
EXTT22=
EXTT23=
PLAYORDER=
